<svg viewBox="0 0 184.61 138.7">

    <path
        d="M77.88 9.62c1.18 1.23 1.5 8 2.18 10.38a95.26 95.26 0 0 1 2 10.32c.41 2.24.13 5.69 1.1 7.59a29.33 29.33 0 0 0 .15 3c.69 2.17.3 3.87.95 6.15.11.39.3.76.42 1.16a1.8 1.8 0 0 1 .1.56 3 3 0 0 0 .34 1.1c.29.9.62.38 1.15.1a3.6 3.6 0 0 0 .7-.45 1.38 1.38 0 0 0 .25-.28s.14-.33.14-.34c.93-.18 1-1.67 1.12-2.39a11.3 11.3 0 0 0 .29-1.41 3.55 3.55 0 0 1 .37-1.82.45.45 0 0 1 .13-.12c.2-.15.44-.26.65-.4a.78.78 0 0 0 .42-.46c0-.35-.42-.14-.55-.33s-.05-.29.09-.29a1.35 1.35 0 0 1 .26.17c.53-.86.42-2.15.63-3.13l-.29.08a4.12 4.12 0 0 0-.15-2.81 2.4 2.4 0 0 0 .33-1.43 1.16 1.16 0 0 0 0-.24.34.34 0 0 1 0-.2.24.24 0 0 1 .41-.09.09.09 0 0 1 0 .05.17.17 0 0 0 .16 0 .61.61 0 0 0 .1-.62 2.83 2.83 0 0 0-.17-.6c-.15-.39-.35-.76-.47-1.15-.25-.83.39-1.56-.2-2.36a.32.32 0 0 0 0-.6v-.94l-.09-1.14-.09-1.14c0-.48-.36-1.06-.36-1.45 0-.6 0-1.21-.09-1.81 0-.19 0-.38-.06-.58s0-.27-.06-.41a.25.25 0 0 0-.05-.14c.31-.17-.23-2.75-.56-4.2v.04c-.09-.41-.17-.71-.2-.82-.31-1.26-1.27-3.09-.6-4.21.29-1.07-.69-1.94-.22-2.73-.23-.15 0-.07-.29 0l-.23-.56a5.13 5.13 0 0 1-.22-.93c-.06-.45 0-.91-.08-1.36 0-.15-.06-.3-.1-.44s-.21-.18-.41-.2a.45.45 0 0 1-.35-.36 1.86 1.86 0 0 1 0-.54 3 3 0 0 0 0-.78 3.26 3.26 0 0 0-.31-.74c-.19-.38-1.21-1.86-1.73-1.76h-.08l-1.18-.11s-.52-.44-.61-.48a3.5 3.5 0 0 0-1.39-.43A7.54 7.54 0 0 0 79.8.9a2.18 2.18 0 0 0-1.76.69c-1.18 1.35-.94 2.7-.57 4.26.25 1.09-.43 2.9.41 3.77zM47.79 58.73a3.34 3.34 0 0 1-.88-1.3 1.32 1.32 0 0 1 .5-.72c.39-.47-3.85-3.59-4.09-4a4.16 4.16 0 0 1-.45-.94 3.55 3.55 0 0 1 0-1.23.2.2 0 0 0 0-.14.17.17 0 0 0-.11-.05.76.76 0 0 0-.3 0 .23.23 0 0 1-.13 0 .2.2 0 0 1-.09-.19 6.47 6.47 0 0 1 0-1 1 1 0 0 1-.49-.25 3.52 3.52 0 0 0-.27-.43 9 9 0 0 0-.9-.76c-.45-.36-.9-.72-1.38-1l-.95-.64h-.05c-.82-.56-1.64-1.14-2.47-1.69-1.15-.77-2.29-1.15-3.08-2.11a28.35 28.35 0 0 0-3.93-2.38c-.88-.29-1.87 0-2.6-.75a2.33 2.33 0 0 0-2.36-.1.19.19 0 0 0-.14.08v.15a.41.41 0 0 0-.13.17h-.14a8.91 8.91 0 0 0-1.67.92.26.26 0 0 1-.38-.13c.07.43-1.88 1.12-2.1 1.43a2.61 2.61 0 0 0-.45 1.69 4.64 4.64 0 0 0 .84 2.47 17.77 17.77 0 0 0 2.15 1.78c1.32 1.29 2.87 1.58 4.46 2.29a37.18 37.18 0 0 1 6.43 3.92c1.83 1.32 7.59 4.77 9.41 6.11.78.57 1.87 1.73 2.84 1.93l.62.13a.66.66 0 0 1 .17.17l.18.19.35.37a3.12 3.12 0 0 0 .38.34l.23.14.1.05a.35.35 0 0 0 .09.07h.13a.23.23 0 0 0 .1 0 .16.16 0 0 0 .08-.18.38.38 0 0 0-.11-.18l-.06-.07a.86.86 0 0 1 0-.49 2.77 2.77 0 0 1 .23-.49 5.48 5.48 0 0 0 .43-.8c.23-.54-.52-1.26-.01-2.38zM48.43 18.03c.18 2.88 2.29 6.12 3.65 7.89a23.19 23.19 0 0 0 1.61 3.11l2 2.81c1.33 2.38 2.8 4.8 4 7.21a12.38 12.38 0 0 0 .65 1.1l.87 1.33c.31.47.62.95.9 1.43.5.84.74 2.19 1.38 2.87.57 1.23 1.12 2.47 1.78 3.66.33.6.68 1.2 1 1.79s.69 1.18 1 1.77.64 1.17.93 1.78c.12.25.23.49.34.74a4.27 4.27 0 0 0 .55.86 4.06 4.06 0 0 0 .51.64.19.19 0 0 0 .16.06.27.27 0 0 0 .16-.21v-.15a.17.17 0 0 1 .2 0 .51.51 0 0 0 .21 0 .27.27 0 0 0 .18-.16c.19-.36.34-.73.52-1.1a12.14 12.14 0 0 0 .53-1.15.21.21 0 0 0 0-.23.25.25 0 0 1-.1-.09.15.15 0 0 1 .06-.13.57.57 0 0 0 .11-.38 4.11 4.11 0 0 0-.16-.77c-.06-.27-.12-.54-.17-.81-.1-.53-.19-1.06-.29-1.6a2.64 2.64 0 0 1-.37-.69.89.89 0 0 0 .16-.71 3 3 0 0 1 0-.84.8.8 0 0 1 .21-.41.91.91 0 0 1 .23-.15.52.52 0 0 1 .24-.07.22.22 0 0 1 .2.12.37.37 0 0 0 0 .08.12.12 0 0 0 .14 0c.42-.15.25-.93.18-1.25s-.12-.43-.18-.65 0-.16-.06-.25a.86.86 0 0 0 0-.16c-.23-.24-.23 0-.36-.38-.25-.78-.27-1.23-.46-2.07a2.91 2.91 0 0 1-.48-2.48l-.37.07a.42.42 0 0 1 .29-.52 1.53 1.53 0 0 1-.51-1.45c-.78-1.26-1.53-2.26-2.41-3.87-.51-.92-.51-2.27-1.39-2.81-.11-.18 0-.09.15-.15-.14 0-2.27-4.15-2.48-4.55-.72-1.35-1.39-2.74-2.2-4a6 6 0 0 1-.46-.75 8.19 8.19 0 0 1-.29-1 6.61 6.61 0 0 0-.28-.72c-.44-1-1-2-1.49-3a7.82 7.82 0 0 0-1.69-2.7c-.75-.53-1.2-1.39-2.13-1.72a5 5 0 0 0-1.75-.2 8.61 8.61 0 0 0-2 .18 3.63 3.63 0 0 0-.89.33c-.2.1-.41.16-.6.27a.87.87 0 0 1 .06.28c-.07.26-.22 0-.32.13a1.59 1.59 0 0 0-.41.09 2.22 2.22 0 0 0-.45.71 4.45 4.45 0 0 0-.43 1 5.61 5.61 0 0 0 .15 2.07.36.36 0 0 1-.13-.05zM107.15 45.28c.54.69 2.43-.25 3.07-.46 2.71-.88 3.8-.21 4-3.87.06-1 .56-2.11.57-3.09a1.22 1.22 0 0 0-.31-.83 3.12 3.12 0 0 1-.33-.35.91.91 0 0 1-.08-.76.49.49 0 0 1 .49-.29.23.23 0 0 0 .11 0 .24.24 0 0 0 .06-.1 2.46 2.46 0 0 0 .12-.88c0-.31.08-.61.11-.92a5.13 5.13 0 0 0-.07-2.31 1.53 1.53 0 0 1-.07-.24 9.74 9.74 0 0 1-.41-1.85.32.32 0 0 1 0-.2.6.6 0 0 1 .15-.11.46.46 0 0 0 .16-.32c0-.18-.05-.35 0-.52a2.79 2.79 0 0 1 .07-.44c.06-.32.14-.65.21-1 .25-1 .55-2 .77-3.06a3.71 3.71 0 0 0 .06-2.24.71.71 0 0 1 .31.07c.12-.55.24-1.1.33-1.65a2.71 2.71 0 0 1 .24-1.23 1.18 1.18 0 0 0 .09-.15 2.09 2.09 0 0 0 .15-1.73 1.7 1.7 0 0 1 .13-.37c.06-.2.1-.41.15-.62s0-.36.05-.55a5.16 5.16 0 0 1 .18-.66c.2-.6.27-1.26.42-1.87a6.73 6.73 0 0 1 .2-.7.59.59 0 0 1 .18-.32.76.76 0 0 0 .28-1.22.48.48 0 0 0 .21-.76.72.72 0 0 0-.26-.14.83.83 0 0 1-.4-.34.6.6 0 0 1 0-.52.26.26 0 0 1 .21-.18c.42-.53.27-1.42.58-2a.43.43 0 0 0 .06-.39.25.25 0 0 1 0-.09h-.33a.1.1 0 0 1-.08 0 .09.09 0 0 1 0-.06 1.55 1.55 0 0 1 .19-.43l.18-.46c.08-.21.18-.42.24-.63-.2-.07-.46-.14-.37-.41a.37.37 0 0 1 .18-.16.62.62 0 0 0 .15-.23 1.45 1.45 0 0 0 .09-.56 4.92 4.92 0 0 0-.06-.63 5.45 5.45 0 0 0-.1-.63.66.66 0 0 0-.45-.36.72.72 0 0 1-.32-.46c-.26-1.34-2.87-1-3.62-.42a4 4 0 0 0-1.12 1.46 18 18 0 0 0-1.64 4.28 2 2 0 0 1-.29.94 16.38 16.38 0 0 0-1.38 3.37 2.74 2.74 0 0 0-.23.75c0 .24.56.23.23.59a1.53 1.53 0 0 0-.25.27 2 2 0 0 0 0 .85 17.14 17.14 0 0 0-1.29 3.6 2.09 2.09 0 0 0-.07.4v.57a.28.28 0 0 1 0 .1v.05a2.48 2.48 0 0 0-.22 1.08c0 .2 0 .41-.07.61a2.85 2.85 0 0 0-.13.5 3.33 3.33 0 0 0-.27.47 3.26 3.26 0 0 1-.21.46 3 3 0 0 0-.27.43 2.82 2.82 0 0 0-.11.73 2.56 2.56 0 0 0-.09.57c.08.78-1 3.8-1.24 4.71-.68 2.53-.54 4.18-.95 6.07-.86 3.95-1.6 8.35-.73 12.07a3.19 3.19 0 0 0 2.84-.23zM121.84 52.61c1.85-.59 4.31 1.26 6.35.3a1.82 1.82 0 0 0 .38-.25 5.94 5.94 0 0 0 1.3-1.75c.46-.83.86-1.69 1.26-2.55s.81-1.76 1.27-2.61a4.26 4.26 0 0 1 1.44-1.89.33.33 0 0 0 .2-.22.19.19 0 0 0-.21-.21 5.79 5.79 0 0 0 1.57-2 16.25 16.25 0 0 1 1.27-2.4c.56-.77 1.52-1.77 2.19-2.66a5.84 5.84 0 0 0 .66-1.45 3.83 3.83 0 0 1 .35-.72.82.82 0 0 1 .24-.27.44.44 0 0 0 .24-.17v-.07a.63.63 0 0 0-.06-.44l.38-.38a2.55 2.55 0 0 0 .31-.51 1.5 1.5 0 0 0 .17-.54 1.49 1.49 0 0 1 0-.58.09.09 0 0 1 .11 0 .72.72 0 0 0 .08.09 1.29 1.29 0 0 0 .62-.74 6.55 6.55 0 0 0 .36-1 8 8 0 0 1 .77-1.86.36.36 0 0 0 .06-.3s0-.08-.06-.12a7 7 0 0 1 0-.74 2.52 2.52 0 0 0-.38-.75c-1.24-2.5-7 3-7.69 3.71s-1.43 1.51-2.08 2.31a49.5 49.5 0 0 0-3 4.25c-1.07 1.63-2.25 3.2-3.39 4.78-.79 1.1-1.57 2.22-2.28 3.38-.36.58-.7 1.17-1 1.77s-.39 1.1-.68 1.64c-.65 1.18-1.27 2.39-1.88 3.6a5.08 5.08 0 0 0 1.13 1.35z">
    </path>
    <path
        d="M184.26 56.61a2.35 2.35 0 0 0 0-2.5c-1.08-1.72-2.32-3.33-3.37-5.09-.81-1.37-1.74-2.66-2.54-4-.51-.88-.82-1.87-1.4-2.7a8.3 8.3 0 0 0-2.46-2 2.44 2.44 0 0 0-.74-.34 4.85 4.85 0 0 0-1 0c-.57 0-1.12-.19-1.68-.23a3.68 3.68 0 0 0-2.44.71 3.8 3.8 0 0 1-.91.66c-.45.17-.93.21-1.38.4a14.89 14.89 0 0 0-2.32 1.39l-1.79 1.19c-.87.57-1.78.71-2.42 1.58a4.57 4.57 0 0 1-1.84 1.62 8.93 8.93 0 0 1-1.66.38 7.75 7.75 0 0 0-3.22 1.54c-.29.23-2.93 2.21-2.94 2.2s-5.31 2.85-5.48 3q-3.52 2.18-6.89 4.59-4.06 2.9-7.87 6.13c-1.24 1.05-2.41 2.2-3.67 3.22-1 .82-1.58 2-2.56 2.92a.94.94 0 0 1-.28.19 1.26 1.26 0 0 1-.47 0c-1.61 0-2.5 1.66-3.6 2.57a16.11 16.11 0 0 1-1.41 1.3 6.58 6.58 0 0 0-.58.39 4.08 4.08 0 0 0-.52.54c-.38.45-.75.9-1.15 1.34l-1.46 1c-4.3 3-8.13 8-11.78 11.86-4.14 4.38-8.18 8.87-12.61 13-1.19 1.1-1.68 2.62-3.21 3.42-1.39 0-6.4-3.81-7.67-4.63-14.88-9.56-30.16-18-45.72-26.49l-2.34-1.28a.08.08 0 0 0 0 .07v-.09c-2-1.09-4.16-2.26-5.87-3-3.91-1.73-7.29-4.48-11.25-5.62-1.54-.44-11.77-6.28-12.63-4.1-.28.7-1.42 1.08-.88 2a4.07 4.07 0 0 1 .14 2c0 .74 0 1.48-.06 2.23v2a14.67 14.67 0 0 1 0 1.87c-.09.58.14 4.05-.25 4.26a2.58 2.58 0 0 0 0 .43.59.59 0 0 0 0 .14.5.5 0 0 0 .11.15l.09.09a.19.19 0 0 1 0 .08.62.62 0 0 1 0 .1v.09a3.6 3.6 0 0 0 .28 1.3A4.53 4.53 0 0 0 2.76 81c.89.61 2.29 1.72 3.43 1.68l-.07.3c1.33.05 1.47.59 2.56 1.14l1.83.38c.55.28.83 1.16 1.61 1a1 1 0 0 1 .35.47.24.24 0 0 1-.29.11c2 1.59 5.65 2.7 8.1 3.84s5.14 2.27 7.77 3.25l.83.31c.22.08.45.09.67.19.58.24 1.14.52 1.69.81a7.42 7.42 0 0 0 1 .53 10.66 10.66 0 0 0 1.64.32 4 4 0 0 1 1.65.42.33.33 0 0 1 .11.1.36.36 0 0 1 0 .18v.42a.13.13 0 0 0 .13.16 3.76 3.76 0 0 1 1.94.89.48.48 0 0 0 .16.13.51.51 0 0 0 .17 0 1.33 1.33 0 0 1 .86.35c.13.12.23.25.35.38a1.65 1.65 0 0 0 .79.44c.38.09.78 0 1.16.15a2 2 0 0 1 1.13.78 3 3 0 0 0 .36.51 1.65 1.65 0 0 0 .88.35 4.28 4.28 0 0 1 2.4.86 1.19 1.19 0 0 0 .28.23 1.07 1.07 0 0 0 .35.07 3 3 0 0 1 1.58.67 11.73 11.73 0 0 0 1.66 1 33.72 33.72 0 0 0 3.66 1.88 9.11 9.11 0 0 1 1.08.41c.49.29.86.71 1.37 1s1.25.76 1.86 1.12l2.47 1.44 1.22.74a8.36 8.36 0 0 0 1.2.72 8.34 8.34 0 0 1 .87.31l1.27.68 2.6 1.39a1.63 1.63 0 0 0 1.45 1.39l1.18.73.56.25a2.8 2.8 0 0 1 .62.74 2.72 2.72 0 0 0 .72.71 2 2 0 0 0 .49.27 3.83 3.83 0 0 0 .56.12 3.31 3.31 0 0 1 1.82.94 6.91 6.91 0 0 1 .79 1.12 4.24 4.24 0 0 1 .59 1.07 2.75 2.75 0 0 1 0 .74 3.82 3.82 0 0 0 .17 1 13.63 13.63 0 0 0 2 4.11 5.91 5.91 0 0 0 1.44 1.55c1.2.84 1.68 2.18 2.63 3.23a23.77 23.77 0 0 0 2.59 2.21 19.07 19.07 0 0 1 2.27 2.72c.7.86 1.58 2.25 2.66 2.65 1.86.7 3.45-4 4.38-5.09.33-.39.73-.7 1-1.1a1.66 1.66 0 0 1 1.32-.66c.46 0 .84.23 1.31.23a.24.24 0 0 1 .22-.14 13.28 13.28 0 0 0 .54-1.41c.41-1.36 2-1.84 2.56-3.08a1.17 1.17 0 0 0 .12-.67c0-.34-.35-.61-.39-.92-.07-.55.84-.73 1.1-1a6 6 0 0 0 .65-1.84 12.25 12.25 0 0 1 1.13-2.79 9.33 9.33 0 0 1 2-2c.74-.64 1.5-1.27 2.21-1.94a5.36 5.36 0 0 0 1.34-1.58 9.13 9.13 0 0 1 1.9-2.58c4.59-4.8 9.11-9.94 14-14.49 3.89-3.66 8.13-6.92 12.28-10.27 2.61-2.11 5.16-4.27 7.75-6.39s5.57-4.49 8.47-6.49 6-3.76 9.12-5.57a19.05 19.05 0 0 0 3-1.83c3.24-2.82 8.13-6.24 12.57-6.22a5.83 5.83 0 0 0 1.6-.1c1.76-.49 2.34-2.79 3.92-3.71z">
    </path>
</svg>