<svg width="24" height="24" viewBox="0 0 24 24" fill="none" xmlns="http://www.w3.org/2000/svg">
    <path
        d="M23.3211 22.148V23.329H14.7601C13.1071 20.436 11.6311 17.72 9.97806 14.886C9.91906 14.886 9.80106 14.827 9.74206 14.827C9.74206 16.598 9.74206 19.078 9.74206 19.964C9.74206 21.558 10.2731 22.148 11.8671 22.148C11.9261 22.148 12.0441 22.148 12.1031 22.148V23.329H0.118059V22.207C0.531059 22.148 0.886059 22.148 1.29906 22.089C2.00706 21.912 2.48006 21.38 2.53906 20.613C2.53906 20.436 2.53906 8.21399 2.53906 6.91599C2.53906 6.56199 2.42106 6.26699 2.18506 6.02999C1.59506 5.43999 0.591059 4.43599 0.0600586 3.90499C0.237059 3.84599 0.414059 3.78699 0.591059 3.66899L9.32906 0.0679932V2.72499C9.32906 2.72499 9.62406 2.13499 10.2151 1.54399C10.9831 0.835993 12.2221 0.303993 13.8161 0.303993C16.0001 0.303993 18.1261 1.48499 19.2481 3.19699C20.1341 4.55499 20.6061 6.08999 20.6061 7.62499C20.6061 12.821 16.1191 15.064 12.3401 15.064C12.2221 15.064 12.1041 15.064 11.9861 15.064L11.9271 15.241C12.9901 15.595 14.2891 15.713 15.3511 15.713C16.3551 15.713 17.4171 15.595 18.0671 15.477L21.1961 21.086C21.8451 22.267 23.0261 22.148 23.3211 22.148ZM9.56506 8.03699C9.56506 10.871 9.56506 13.114 11.3951 13.114C13.2251 13.114 13.2251 10.811 13.2251 8.03599C13.2251 5.20199 13.0481 2.95899 11.3951 2.95899C9.74206 2.95899 9.56506 5.20399 9.56506 8.03699Z"
        fill="#783CEA" />
</svg>