<svg xmlns="http://www.w3.org/2000/svg" fill="none" viewBox="0 0 28 28">
    <path fill="#fff" fill-rule="evenodd"
        d="M9.583 27.6c-2.8.08-6.12-.48-8.68-1.72l1-2.64c1.56 1 3.92 1.76 6.8 1.8 2.88.04 5.52-1.12 7.16-3.52.72-1.04 1.24-2.24 1.56-3.6.28-1.36.44-2.76.4-4.24-.04-1.16-.16-2.16-.36-3.08-.2-.92-.48-1.72-.76-2.4-.28-.72-.64-1.32-1-1.8s-.72-.92-1.12-1.28c-.8-.72-1.68-1.24-2.72-1.64-2.04-.8-4.2-.6-6.2.32l-.113.059c.359.18.684.392.953.661.32.32.6.68.8 1.12.2.44.32.88.32 1.32 0 .96-.32 1.8-1 2.48-.68.68-1.56 1.04-2.56 1.08-.96 0-1.8-.32-2.48-.96-.72-.64-1.08-1.48-1.08-2.44a3.335 3.335 0 01.725-2.247C3.518.756 10.323-.166 14.623 1.16c1.72.52 3.16 1.28 4.4 2.24 1.36 1.08 2.52 2.48 3.44 4.2.96 1.72 1.44 3.76 1.48 6.16 0 .8-.04 1.6-.16 2.44-.12.84-.32 1.68-.64 2.52-.32.88-.72 1.72-1.24 2.56-.52.88-1.16 1.68-1.96 2.44-.76.76-1.52 1.36-2.32 1.84-.8.48-1.64.88-2.52 1.16-.88.28-1.76.52-2.68.64-.92.16-1.88.24-2.84.24zM24.16 22c.44 0 .84.08 1.24.24.4.16.72.4 1.04.68.28.28.52.6.72 1 .2.4.28.76.28 1.2 0 .84-.32 1.6-.96 2.2-.64.6-1.4.88-2.32.88-.88 0-1.6-.28-2.24-.88-.64-.6-.92-1.32-.92-2.2 0-.88.32-1.64.92-2.24.6-.6 1.36-.88 2.24-.88z"
        clip-rule="evenodd"></path>
</svg>